<svg width="512" height="512" viewBox="0 0 512 512"
  xmlns="http://www.w3.org/2000/svg" xmlns:xlink="http://www.w3.org/1999/xlink">
<!--
Tile Classification S-V2, created by Tileset Creator.
https://www.boristhebrave.com/permanent/23/03/tileset-creator/?autotile=Corner&cellType=Square&rotation=None&terrainCount=2&overlay=False&skipCornerTiles=False&drawStyle=Straight
-->
<g transform="matrix(1 -0 -0 1 64 64)">
<path d="M32,32L32,-32L-32,-32L-32,32Z" style="stroke:black;fill:white" />
</g>
<g transform="matrix(1 -0 -0 1 192 64)">
<path d="M32,32L32,-32L-32,-32L-32,32Z" style="stroke:black;fill:white" />
<path d="M0,32L32,32L32,-0L0,32" style="stroke:black;fill:red" />
</g>
<g transform="matrix(1 -0 -0 1 320 64)">
<path d="M32,32L32,-32L-32,-32L-32,32Z" style="stroke:black;fill:white" />
<path d="M32,-0L32,-32L0,-32L32,-0" style="stroke:black;fill:red" />
</g>
<g transform="matrix(1 -0 -0 1 448 64)">
<path d="M32,32L32,-32L-32,-32L-32,32Z" style="stroke:black;fill:white" />
<path d="M0,32L32,32L32,-32L0,-32L0,32" style="stroke:black;fill:red" />
</g>
<g transform="matrix(1 -0 -0 1 64 192)">
<path d="M32,32L32,-32L-32,-32L-32,32Z" style="stroke:black;fill:white" />
<path d="M0,-32L-32,-32L-32,-0L0,-32" style="stroke:black;fill:red" />
</g>
<g transform="matrix(1 -0 -0 1 192 192)">
<path d="M32,32L32,-32L-32,-32L-32,32Z" style="stroke:black;fill:white" />
<path d="M0,-32L-32,-32L-32,-0L0,-32" style="stroke:black;fill:red" />
<path d="M0,32L32,32L32,-0L0,32" style="stroke:black;fill:red" />
</g>
<g transform="matrix(1 -0 -0 1 320 192)">
<path d="M32,32L32,-32L-32,-32L-32,32Z" style="stroke:black;fill:white" />
<path d="M32,-0L32,-32L-32,-32L-32,-0L32,-0" style="stroke:black;fill:red" />
</g>
<g transform="matrix(1 -0 -0 1 448 192)">
<path d="M32,32L32,-32L-32,-32L-32,32Z" style="stroke:black;fill:white" />
<path d="M0,32L32,32L32,-32L-32,-32L-32,-0L0,32" style="stroke:black;fill:red" />
</g>
<g transform="matrix(1 -0 -0 1 64 320)">
<path d="M32,32L32,-32L-32,-32L-32,32Z" style="stroke:black;fill:white" />
<path d="M-32,-0L-32,32L0,32L-32,-0" style="stroke:black;fill:red" />
</g>
<g transform="matrix(1 -0 -0 1 192 320)">
<path d="M32,32L32,-32L-32,-32L-32,32Z" style="stroke:black;fill:white" />
<path d="M-32,-0L-32,32L32,32L32,-0L-32,-0" style="stroke:black;fill:red" />
</g>
<g transform="matrix(1 -0 -0 1 320 320)">
<path d="M32,32L32,-32L-32,-32L-32,32Z" style="stroke:black;fill:white" />
<path d="M32,-0L32,-32L0,-32L32,-0" style="stroke:black;fill:red" />
<path d="M-32,-0L-32,32L0,32L-32,-0" style="stroke:black;fill:red" />
</g>
<g transform="matrix(1 -0 -0 1 448 320)">
<path d="M32,32L32,-32L-32,-32L-32,32Z" style="stroke:black;fill:white" />
<path d="M-32,-0L-32,32L32,32L32,-32L0,-32L-32,-0" style="stroke:black;fill:red" />
</g>
<g transform="matrix(1 -0 -0 1 64 448)">
<path d="M32,32L32,-32L-32,-32L-32,32Z" style="stroke:black;fill:white" />
<path d="M0,-32L-32,-32L-32,32L0,32L0,-32" style="stroke:black;fill:red" />
</g>
<g transform="matrix(1 -0 -0 1 192 448)">
<path d="M32,32L32,-32L-32,-32L-32,32Z" style="stroke:black;fill:white" />
<path d="M0,-32L-32,-32L-32,32L32,32L32,-0L0,-32" style="stroke:black;fill:red" />
</g>
<g transform="matrix(1 -0 -0 1 320 448)">
<path d="M32,32L32,-32L-32,-32L-32,32Z" style="stroke:black;fill:white" />
<path d="M32,-0L32,-32L-32,-32L-32,32L0,32L32,-0" style="stroke:black;fill:red" />
</g>
<g transform="matrix(1 -0 -0 1 448 448)">
<path d="M32,32L32,-32L-32,-32L-32,32Z" style="stroke:black;fill:white" />
<path d="M0,32L32,32L32,-32L-32,-32L-32,32L0,32" style="stroke:black;fill:red" />
</g>
<g transform="matrix(1 0 0 1 0 0)">
</g></svg>